<svg xmlns="http://www.w3.org/2000/svg" viewBox="0 0 48 48" fill="none">
  <defs>
    <linearGradient id="kk-g" x1="6" y1="4" x2="42" y2="44" gradientUnits="userSpaceOnUse">
      <stop stop-color="#10b981"/>
      <stop offset="1" stop-color="#0d9d70"/>
    </linearGradient>
  </defs>
  <rect x="2" y="2" width="44" height="44" rx="12" fill="url(#kk-g)"/>
  <path d="M10 16.5c0-1.1.9-2 2-2h13a2 2 0 0 1 2 2v14a2 2 0 0 1-2 2H12a2 2 0 0 1-2-2v-14z" fill="#ffffff" fill-opacity=".92"/>
  <path d="M27 20.5h5.2a2 2 0 0 1 1.66.89l3.8 5.5c.22.32.34.7.34 1.08v3.03a1.5 1.5 0 0 1-1.5 1.5H27a1.5 1.5 0 0 1-1.5-1.5v-9c0-.83.67-1.5 1.5-1.5z" fill="#ffffff" fill-opacity=".92"/>
  <path d="M25.5 32.5v-12" stroke="#0d9d70" stroke-width="1.6"/>
  <circle cx="17" cy="34.5" r="3.4" fill="#0f2b23" stroke="#ffffff" stroke-width="2"/>
  <circle cx="31.5" cy="34.5" r="3.4" fill="#0f2b23" stroke="#ffffff" stroke-width="2"/>
  <path d="M15 21.5h7M15 25.5h5" stroke="#0d9d70" stroke-width="1.7" stroke-linecap="round"/>
  <path d="M31.5 8.5l1.53 3.2 3.47.44-2.57 2.42.68 3.44-3.11-1.7-3.11 1.7.68-3.44-2.57-2.42 3.47-.44L31.5 8.5z" fill="#ffffff" fill-opacity=".9"/>
</svg>
